<svg viewBox="0 0 512 512" width="48" height="48" xmlns="http://www.w3.org/2000/svg" clip-rule="evenodd">

  <style type="text/css">
    <![CDATA[

    .linkedin-svg-logo { fill: rgba(255, 255, 255, 0.3); transition: fill 0.15s; }
    .web-link:hover .linkedin-svg-logo { fill: rgba(255, 255, 255, 1); }

    ]]>
  </style>
 <!-- Not sure why target="_top" is needed, but it is -->
<a href="https://www.linkedin.com/in/reubenisanchez/" target="_top" class="web-link">
 <g>
  <rect fill="black" fill-opacity="0.0" class="linkedin-svg-logo-box" id="canvas_background" height="402" width="582" y="-1" x="-1"/>
 </g>
 <g>
  <path fill="#ffffff" class="linkedin-svg-logo" id="svg_1" d="m256,0c141.29,0 256,114.71 256,256c0,141.29 -114.71,256 -256,256c-141.29,0 -256,-114.71 -256,-256c0,-141.29 114.71,-256 256,-256zm-80.037,399.871l0,-199.921l-66.464,0l0,199.921l66.464,0zm239.62,0l0,-114.646c0,-61.409 -32.787,-89.976 -76.509,-89.976c-35.255,0 -51.047,19.389 -59.889,33.007l0,-28.306l-66.447,0c0.881,18.757 0,199.921 0,199.921l66.446,0l0,-111.65c0,-5.976 0.43,-11.95 2.191,-16.221c4.795,-11.935 15.737,-24.299 34.095,-24.299c24.034,0 33.663,18.34 33.663,45.204l0,106.966l66.45,0zm-272.403,-296.321c-22.74,0 -37.597,14.95 -37.597,34.545c0,19.182 14.405,34.544 36.717,34.544l0.429,0c23.175,0 37.6,-15.362 37.6,-34.544c-0.43,-19.595 -14.424,-34.545 -37.149,-34.545z"/>
 </g>
 </a>
</svg>